# xmcd
#
# Track frame offsets:
#	150
#	12072
#	30670
#	46972
#	73432
#	94022
#	113215
#	132350
#	150717
#
# Disc length: 2159 seconds
#
# Revision: 1
# Processed by: cddbd v1.5.1PL2 Copyright (c) Steve Scherf et al.
# Submitted via: audiograbber 1.83.01
#
DISCID=73086d09
DTITLE=Solomon Burke - Music To Make Love By
DYEAR=1996
DGENRE=Blues
TTITLE0=Music To Make Love By (Part I)
TTITLE1=Let Me Wrap My Arms Around You
TTITLE2=Com Rain Or Come Shine
TTITLE3=You And Your Baby Blues
TTITLE4=All The Way
TTITLE5=Thanks, I Needed That
TTITLE6=Everlasting Love
TTITLE7=Midnight And You
TTITLE8=Music To Make Love By (Part II)
EXTD=
EXTT0=
EXTT1=
EXTT2=
EXTT3=
EXTT4=
EXTT5=
EXTT6=
EXTT7=
EXTT8=
PLAYORDER=
